<mxfile host="app.diagrams.net" modified="2024-03-14T20:33:35.192Z" agent="Mozilla/5.0 (Macintosh; Intel Mac OS X 10_15_7) AppleWebKit/605.1.15 (KHTML, like Gecko) Version/17.1.2 Safari/605.1.15" etag="QJajgc49JjH94uIHZpzZ" version="24.0.6" type="device">
  <diagram name="Page-1" id="XDxa8Vt3stgG3VA280yX">
    <mxGraphModel dx="588" dy="583" grid="0" gridSize="10" guides="1" tooltips="1" connect="1" arrows="1" fold="1" page="0" pageScale="1" pageWidth="827" pageHeight="1169" math="0" shadow="0">
      <root>
        <mxCell id="0" />
        <mxCell id="1" parent="0" />
        <mxCell id="RZeBgMhCQP2Cw0IFh36C-74" value="Товарищ" style="swimlane;fontStyle=0;childLayout=stackLayout;horizontal=1;startSize=30;horizontalStack=0;resizeParent=1;resizeParentMax=0;resizeLast=0;collapsible=1;marginBottom=0;whiteSpace=wrap;html=1;" vertex="1" parent="1">
          <mxGeometry x="355" y="280" width="140" height="210" as="geometry" />
        </mxCell>
        <mxCell id="RZeBgMhCQP2Cw0IFh36C-75" value="ИД товарища&lt;span style=&quot;white-space: pre;&quot;&gt;&#x9;&lt;/span&gt;&lt;br&gt;" style="text;strokeColor=none;fillColor=none;align=left;verticalAlign=middle;spacingLeft=4;spacingRight=4;overflow=hidden;points=[[0,0.5],[1,0.5]];portConstraint=eastwest;rotatable=0;whiteSpace=wrap;html=1;" vertex="1" parent="RZeBgMhCQP2Cw0IFh36C-74">
          <mxGeometry y="30" width="140" height="30" as="geometry" />
        </mxCell>
        <mxCell id="RZeBgMhCQP2Cw0IFh36C-76" value="Имя" style="text;strokeColor=none;fillColor=none;align=left;verticalAlign=middle;spacingLeft=4;spacingRight=4;overflow=hidden;points=[[0,0.5],[1,0.5]];portConstraint=eastwest;rotatable=0;whiteSpace=wrap;html=1;" vertex="1" parent="RZeBgMhCQP2Cw0IFh36C-74">
          <mxGeometry y="60" width="140" height="30" as="geometry" />
        </mxCell>
        <mxCell id="RZeBgMhCQP2Cw0IFh36C-77" value="Дата рождения" style="text;strokeColor=none;fillColor=none;align=left;verticalAlign=middle;spacingLeft=4;spacingRight=4;overflow=hidden;points=[[0,0.5],[1,0.5]];portConstraint=eastwest;rotatable=0;whiteSpace=wrap;html=1;" vertex="1" parent="RZeBgMhCQP2Cw0IFh36C-74">
          <mxGeometry y="90" width="140" height="30" as="geometry" />
        </mxCell>
        <mxCell id="RZeBgMhCQP2Cw0IFh36C-78" value="Дата смерти" style="text;strokeColor=none;fillColor=none;align=left;verticalAlign=middle;spacingLeft=4;spacingRight=4;overflow=hidden;points=[[0,0.5],[1,0.5]];portConstraint=eastwest;rotatable=0;whiteSpace=wrap;html=1;" vertex="1" parent="RZeBgMhCQP2Cw0IFh36C-74">
          <mxGeometry y="120" width="140" height="30" as="geometry" />
        </mxCell>
        <mxCell id="RZeBgMhCQP2Cw0IFh36C-79" value="ИД Судьбы" style="text;strokeColor=none;fillColor=none;align=left;verticalAlign=middle;spacingLeft=4;spacingRight=4;overflow=hidden;points=[[0,0.5],[1,0.5]];portConstraint=eastwest;rotatable=0;whiteSpace=wrap;html=1;" vertex="1" parent="RZeBgMhCQP2Cw0IFh36C-74">
          <mxGeometry y="150" width="140" height="30" as="geometry" />
        </mxCell>
        <mxCell id="RZeBgMhCQP2Cw0IFh36C-80" value="ИД Жалобы" style="text;strokeColor=none;fillColor=none;align=left;verticalAlign=middle;spacingLeft=4;spacingRight=4;overflow=hidden;points=[[0,0.5],[1,0.5]];portConstraint=eastwest;rotatable=0;whiteSpace=wrap;html=1;" vertex="1" parent="RZeBgMhCQP2Cw0IFh36C-74">
          <mxGeometry y="180" width="140" height="30" as="geometry" />
        </mxCell>
        <mxCell id="RZeBgMhCQP2Cw0IFh36C-81" value="Судьба" style="swimlane;fontStyle=0;childLayout=stackLayout;horizontal=1;startSize=30;horizontalStack=0;resizeParent=1;resizeParentMax=0;resizeLast=0;collapsible=1;marginBottom=0;whiteSpace=wrap;html=1;" vertex="1" parent="1">
          <mxGeometry x="586" y="249" width="140" height="90" as="geometry" />
        </mxCell>
        <mxCell id="RZeBgMhCQP2Cw0IFh36C-82" value="ИД Судьбы" style="text;strokeColor=none;fillColor=none;align=left;verticalAlign=middle;spacingLeft=4;spacingRight=4;overflow=hidden;points=[[0,0.5],[1,0.5]];portConstraint=eastwest;rotatable=0;whiteSpace=wrap;html=1;" vertex="1" parent="RZeBgMhCQP2Cw0IFh36C-81">
          <mxGeometry y="30" width="140" height="30" as="geometry" />
        </mxCell>
        <mxCell id="RZeBgMhCQP2Cw0IFh36C-83" value="Описание" style="text;strokeColor=none;fillColor=none;align=left;verticalAlign=middle;spacingLeft=4;spacingRight=4;overflow=hidden;points=[[0,0.5],[1,0.5]];portConstraint=eastwest;rotatable=0;whiteSpace=wrap;html=1;" vertex="1" parent="RZeBgMhCQP2Cw0IFh36C-81">
          <mxGeometry y="60" width="140" height="30" as="geometry" />
        </mxCell>
        <mxCell id="RZeBgMhCQP2Cw0IFh36C-84" value="Жалоба" style="swimlane;fontStyle=0;childLayout=stackLayout;horizontal=1;startSize=30;horizontalStack=0;resizeParent=1;resizeParentMax=0;resizeLast=0;collapsible=1;marginBottom=0;whiteSpace=wrap;html=1;" vertex="1" parent="1">
          <mxGeometry x="586" y="400" width="140" height="90" as="geometry" />
        </mxCell>
        <mxCell id="RZeBgMhCQP2Cw0IFh36C-85" value="ИД Жалобы" style="text;strokeColor=none;fillColor=none;align=left;verticalAlign=middle;spacingLeft=4;spacingRight=4;overflow=hidden;points=[[0,0.5],[1,0.5]];portConstraint=eastwest;rotatable=0;whiteSpace=wrap;html=1;" vertex="1" parent="RZeBgMhCQP2Cw0IFh36C-84">
          <mxGeometry y="30" width="140" height="30" as="geometry" />
        </mxCell>
        <mxCell id="RZeBgMhCQP2Cw0IFh36C-86" value="Описание" style="text;strokeColor=none;fillColor=none;align=left;verticalAlign=middle;spacingLeft=4;spacingRight=4;overflow=hidden;points=[[0,0.5],[1,0.5]];portConstraint=eastwest;rotatable=0;whiteSpace=wrap;html=1;" vertex="1" parent="RZeBgMhCQP2Cw0IFh36C-84">
          <mxGeometry y="60" width="140" height="30" as="geometry" />
        </mxCell>
        <mxCell id="RZeBgMhCQP2Cw0IFh36C-87" value="Увиденные чудеса" style="swimlane;fontStyle=0;childLayout=stackLayout;horizontal=1;startSize=30;horizontalStack=0;resizeParent=1;resizeParentMax=0;resizeLast=0;collapsible=1;marginBottom=0;whiteSpace=wrap;html=1;" vertex="1" parent="1">
          <mxGeometry x="135" y="303" width="145" height="120" as="geometry" />
        </mxCell>
        <mxCell id="RZeBgMhCQP2Cw0IFh36C-88" value="ИД чуда" style="text;strokeColor=none;fillColor=none;align=left;verticalAlign=middle;spacingLeft=4;spacingRight=4;overflow=hidden;points=[[0,0.5],[1,0.5]];portConstraint=eastwest;rotatable=0;whiteSpace=wrap;html=1;" vertex="1" parent="RZeBgMhCQP2Cw0IFh36C-87">
          <mxGeometry y="30" width="145" height="30" as="geometry" />
        </mxCell>
        <mxCell id="RZeBgMhCQP2Cw0IFh36C-89" value="ИД товарища" style="text;strokeColor=none;fillColor=none;align=left;verticalAlign=middle;spacingLeft=4;spacingRight=4;overflow=hidden;points=[[0,0.5],[1,0.5]];portConstraint=eastwest;rotatable=0;whiteSpace=wrap;html=1;" vertex="1" parent="RZeBgMhCQP2Cw0IFh36C-87">
          <mxGeometry y="60" width="145" height="30" as="geometry" />
        </mxCell>
        <mxCell id="RZeBgMhCQP2Cw0IFh36C-90" value="Дата увиденного чуда" style="text;strokeColor=none;fillColor=none;align=left;verticalAlign=middle;spacingLeft=4;spacingRight=4;overflow=hidden;points=[[0,0.5],[1,0.5]];portConstraint=eastwest;rotatable=0;whiteSpace=wrap;html=1;" vertex="1" parent="RZeBgMhCQP2Cw0IFh36C-87">
          <mxGeometry y="90" width="145" height="30" as="geometry" />
        </mxCell>
        <mxCell id="RZeBgMhCQP2Cw0IFh36C-91" value="Чудо" style="swimlane;fontStyle=0;childLayout=stackLayout;horizontal=1;startSize=30;horizontalStack=0;resizeParent=1;resizeParentMax=0;resizeLast=0;collapsible=1;marginBottom=0;whiteSpace=wrap;html=1;" vertex="1" parent="1">
          <mxGeometry x="135" y="95" width="140" height="150" as="geometry" />
        </mxCell>
        <mxCell id="RZeBgMhCQP2Cw0IFh36C-92" value="ИД чуда" style="text;strokeColor=none;fillColor=none;align=left;verticalAlign=middle;spacingLeft=4;spacingRight=4;overflow=hidden;points=[[0,0.5],[1,0.5]];portConstraint=eastwest;rotatable=0;whiteSpace=wrap;html=1;" vertex="1" parent="RZeBgMhCQP2Cw0IFh36C-91">
          <mxGeometry y="30" width="140" height="30" as="geometry" />
        </mxCell>
        <mxCell id="RZeBgMhCQP2Cw0IFh36C-93" value="Название" style="text;strokeColor=none;fillColor=none;align=left;verticalAlign=middle;spacingLeft=4;spacingRight=4;overflow=hidden;points=[[0,0.5],[1,0.5]];portConstraint=eastwest;rotatable=0;whiteSpace=wrap;html=1;" vertex="1" parent="RZeBgMhCQP2Cw0IFh36C-91">
          <mxGeometry y="60" width="140" height="30" as="geometry" />
        </mxCell>
        <mxCell id="RZeBgMhCQP2Cw0IFh36C-94" value="ИД Локации" style="text;strokeColor=none;fillColor=none;align=left;verticalAlign=middle;spacingLeft=4;spacingRight=4;overflow=hidden;points=[[0,0.5],[1,0.5]];portConstraint=eastwest;rotatable=0;whiteSpace=wrap;html=1;" vertex="1" parent="RZeBgMhCQP2Cw0IFh36C-91">
          <mxGeometry y="90" width="140" height="30" as="geometry" />
        </mxCell>
        <mxCell id="RZeBgMhCQP2Cw0IFh36C-95" value="ИД Опасности" style="text;strokeColor=none;fillColor=none;align=left;verticalAlign=middle;spacingLeft=4;spacingRight=4;overflow=hidden;points=[[0,0.5],[1,0.5]];portConstraint=eastwest;rotatable=0;whiteSpace=wrap;html=1;" vertex="1" parent="RZeBgMhCQP2Cw0IFh36C-91">
          <mxGeometry y="120" width="140" height="30" as="geometry" />
        </mxCell>
        <mxCell id="RZeBgMhCQP2Cw0IFh36C-96" value="Локация" style="swimlane;fontStyle=0;childLayout=stackLayout;horizontal=1;startSize=30;horizontalStack=0;resizeParent=1;resizeParentMax=0;resizeLast=0;collapsible=1;marginBottom=0;whiteSpace=wrap;html=1;" vertex="1" parent="1">
          <mxGeometry x="355" y="95" width="138" height="90" as="geometry" />
        </mxCell>
        <mxCell id="RZeBgMhCQP2Cw0IFh36C-97" value="ИД Локации" style="text;strokeColor=none;fillColor=none;align=left;verticalAlign=middle;spacingLeft=4;spacingRight=4;overflow=hidden;points=[[0,0.5],[1,0.5]];portConstraint=eastwest;rotatable=0;whiteSpace=wrap;html=1;" vertex="1" parent="RZeBgMhCQP2Cw0IFh36C-96">
          <mxGeometry y="30" width="138" height="30" as="geometry" />
        </mxCell>
        <mxCell id="RZeBgMhCQP2Cw0IFh36C-98" value="Название" style="text;strokeColor=none;fillColor=none;align=left;verticalAlign=middle;spacingLeft=4;spacingRight=4;overflow=hidden;points=[[0,0.5],[1,0.5]];portConstraint=eastwest;rotatable=0;whiteSpace=wrap;html=1;" vertex="1" parent="RZeBgMhCQP2Cw0IFh36C-96">
          <mxGeometry y="60" width="138" height="30" as="geometry" />
        </mxCell>
        <mxCell id="RZeBgMhCQP2Cw0IFh36C-99" value="Опасность" style="swimlane;fontStyle=0;childLayout=stackLayout;horizontal=1;startSize=30;horizontalStack=0;resizeParent=1;resizeParentMax=0;resizeLast=0;collapsible=1;marginBottom=0;whiteSpace=wrap;html=1;" vertex="1" parent="1">
          <mxGeometry x="586" y="95" width="140" height="90" as="geometry" />
        </mxCell>
        <mxCell id="RZeBgMhCQP2Cw0IFh36C-100" value="ИД Опасности" style="text;strokeColor=none;fillColor=none;align=left;verticalAlign=middle;spacingLeft=4;spacingRight=4;overflow=hidden;points=[[0,0.5],[1,0.5]];portConstraint=eastwest;rotatable=0;whiteSpace=wrap;html=1;" vertex="1" parent="RZeBgMhCQP2Cw0IFh36C-99">
          <mxGeometry y="30" width="140" height="30" as="geometry" />
        </mxCell>
        <mxCell id="RZeBgMhCQP2Cw0IFh36C-101" value="Описание" style="text;strokeColor=none;fillColor=none;align=left;verticalAlign=middle;spacingLeft=4;spacingRight=4;overflow=hidden;points=[[0,0.5],[1,0.5]];portConstraint=eastwest;rotatable=0;whiteSpace=wrap;html=1;" vertex="1" parent="RZeBgMhCQP2Cw0IFh36C-99">
          <mxGeometry y="60" width="140" height="30" as="geometry" />
        </mxCell>
        <mxCell id="RZeBgMhCQP2Cw0IFh36C-102" value="" style="edgeStyle=orthogonalEdgeStyle;fontSize=12;html=1;endArrow=ERoneToMany;startArrow=ERmandOne;rounded=0;exitX=1;exitY=0.5;exitDx=0;exitDy=0;entryX=0.007;entryY=0.133;entryDx=0;entryDy=0;entryPerimeter=0;endFill=0;" edge="1" parent="1" source="RZeBgMhCQP2Cw0IFh36C-94" target="RZeBgMhCQP2Cw0IFh36C-96">
          <mxGeometry width="100" height="100" relative="1" as="geometry">
            <mxPoint x="380" y="264" as="sourcePoint" />
            <mxPoint x="480" y="164" as="targetPoint" />
          </mxGeometry>
        </mxCell>
        <mxCell id="RZeBgMhCQP2Cw0IFh36C-103" value="" style="edgeStyle=orthogonalEdgeStyle;fontSize=12;html=1;endArrow=ERoneToMany;startArrow=ERmandOne;rounded=0;exitX=1;exitY=0.5;exitDx=0;exitDy=0;entryX=-0.003;entryY=0.131;entryDx=0;entryDy=0;entryPerimeter=0;" edge="1" parent="1" source="RZeBgMhCQP2Cw0IFh36C-95" target="RZeBgMhCQP2Cw0IFh36C-99">
          <mxGeometry width="100" height="100" relative="1" as="geometry">
            <mxPoint x="380" y="264" as="sourcePoint" />
            <mxPoint x="480" y="164" as="targetPoint" />
            <Array as="points">
              <mxPoint x="539" y="230" />
              <mxPoint x="539" y="107" />
            </Array>
          </mxGeometry>
        </mxCell>
        <mxCell id="RZeBgMhCQP2Cw0IFh36C-104" value="" style="fontSize=12;html=1;endArrow=ERzeroToMany;startArrow=ERmandOne;rounded=0;entryX=0;entryY=0.5;entryDx=0;entryDy=0;edgeStyle=orthogonalEdgeStyle;" edge="1" parent="1" target="RZeBgMhCQP2Cw0IFh36C-88">
          <mxGeometry width="100" height="100" relative="1" as="geometry">
            <mxPoint x="135" y="112" as="sourcePoint" />
            <mxPoint x="480" y="264" as="targetPoint" />
            <Array as="points">
              <mxPoint x="135" y="112" />
              <mxPoint x="109" y="112" />
              <mxPoint x="109" y="348" />
            </Array>
          </mxGeometry>
        </mxCell>
        <mxCell id="RZeBgMhCQP2Cw0IFh36C-105" value="" style="edgeStyle=orthogonalEdgeStyle;fontSize=12;html=1;endArrow=ERzeroToMany;startArrow=ERmandOne;rounded=0;entryX=1;entryY=0.5;entryDx=0;entryDy=0;exitX=-0.004;exitY=0.052;exitDx=0;exitDy=0;exitPerimeter=0;" edge="1" parent="1" source="RZeBgMhCQP2Cw0IFh36C-74" target="RZeBgMhCQP2Cw0IFh36C-89">
          <mxGeometry width="100" height="100" relative="1" as="geometry">
            <mxPoint x="355" y="281" as="sourcePoint" />
            <mxPoint x="480" y="264" as="targetPoint" />
            <Array as="points">
              <mxPoint x="318" y="291" />
              <mxPoint x="318" y="378" />
            </Array>
          </mxGeometry>
        </mxCell>
        <mxCell id="RZeBgMhCQP2Cw0IFh36C-106" value="" style="edgeStyle=orthogonalEdgeStyle;fontSize=12;html=1;endArrow=ERoneToMany;startArrow=ERmandOne;rounded=0;exitX=1;exitY=0.5;exitDx=0;exitDy=0;" edge="1" parent="1" source="RZeBgMhCQP2Cw0IFh36C-79">
          <mxGeometry width="100" height="100" relative="1" as="geometry">
            <mxPoint x="474" y="340" as="sourcePoint" />
            <mxPoint x="586" y="268" as="targetPoint" />
            <Array as="points">
              <mxPoint x="541" y="445" />
              <mxPoint x="541" y="268" />
            </Array>
          </mxGeometry>
        </mxCell>
        <mxCell id="RZeBgMhCQP2Cw0IFh36C-107" value="" style="edgeStyle=orthogonalEdgeStyle;fontSize=12;html=1;endArrow=ERoneToMany;startArrow=ERmandOne;rounded=0;exitX=1;exitY=0.5;exitDx=0;exitDy=0;" edge="1" parent="1" source="RZeBgMhCQP2Cw0IFh36C-80">
          <mxGeometry width="100" height="100" relative="1" as="geometry">
            <mxPoint x="295" y="250" as="sourcePoint" />
            <mxPoint x="585" y="413" as="targetPoint" />
            <Array as="points">
              <mxPoint x="558" y="475" />
              <mxPoint x="558" y="413" />
            </Array>
          </mxGeometry>
        </mxCell>
      </root>
    </mxGraphModel>
  </diagram>
</mxfile>
